
<svg width="30" height="32" viewBox="0 0 30 32" fill="none" xmlns="http://www.w3.org/2000/svg">
<mask id="path-1-outside-1_8159_971" maskUnits="userSpaceOnUse" x="3" y="0" width="24" height="32" fill="black">
<rect fill="white" x="3" width="24" height="32"/>
<path fill-rule="evenodd" clip-rule="evenodd" d="M22.9916 18.0122C24.2525 16.3388 25 14.2567 25 12C25 6.47715 20.5228 2 15 2C9.47715 2 5 6.47715 5 12C5 14.2567 5.74752 16.3388 7.00846 18.0122C7.00559 18.026 7.00278 18.0399 7 18.0537C11.5 25 15 30 15 30C15 30 18.5 25 23 18.0537C22.9972 18.0398 22.9944 18.026 22.9916 18.0122Z"/>
</mask>
<path fill-rule="evenodd" clip-rule="evenodd" d="M22.9916 18.0122C24.2525 16.3388 25 14.2567 25 12C25 6.47715 20.5228 2 15 2C9.47715 2 5 6.47715 5 12C5 14.2567 5.74752 16.3388 7.00846 18.0122C7.00559 18.026 7.00278 18.0399 7 18.0537C11.5 25 15 30 15 30C15 30 18.5 25 23 18.0537C22.9972 18.0398 22.9944 18.026 22.9916 18.0122Z" fill="currentColor"/>
<path d="M22.9916 18.0122L21.3943 16.8086C21.0479 17.2683 20.9163 17.855 21.0333 18.4186L22.9916 18.0122ZM7.00846 18.0122L8.96674 18.4186C9.08369 17.855 8.95216 17.2683 8.60576 16.8086L7.00846 18.0122ZM7 18.0537L5.03882 17.6616C4.93662 18.1728 5.03803 18.7036 5.32145 19.1411L7 18.0537ZM15 30L13.3615 31.1469C13.7358 31.6816 14.3474 32 15 32C15.6526 32 16.2642 31.6816 16.6385 31.1469L15 30ZM23 18.0537L24.6786 19.1411C24.962 18.7036 25.0634 18.1727 24.9612 17.6615L23 18.0537ZM23 12C23 13.8076 22.4029 15.47 21.3943 16.8086L24.5889 19.2158C26.1021 17.2075 27 14.7057 27 12H23ZM15 4C19.4183 4 23 7.58172 23 12H27C27 5.37258 21.6274 0 15 0V4ZM7 12C7 7.58172 10.5817 4 15 4V0C8.37258 0 3 5.37258 3 12H7ZM8.60576 16.8086C7.59713 15.4701 7 13.8076 7 12H3C3 14.7058 3.89791 17.2076 5.41116 19.2158L8.60576 16.8086ZM5.05018 17.6058C5.04634 17.6244 5.04255 17.6429 5.03882 17.6616L8.96119 18.4458C8.963 18.4368 8.96485 18.4277 8.96674 18.4186L5.05018 17.6058ZM5.32145 19.1411C7.58076 22.6286 9.58887 25.6273 11.0326 27.7548C11.7546 28.8187 12.3357 29.6651 12.7368 30.2463C12.9374 30.5369 13.093 30.7612 13.1987 30.9133C13.2516 30.9894 13.292 31.0474 13.3194 31.0865C13.333 31.1061 13.3434 31.121 13.3505 31.1311C13.354 31.1362 13.3567 31.14 13.3585 31.1427C13.3595 31.144 13.3602 31.145 13.3607 31.1457C13.3609 31.1461 13.3611 31.1464 13.3613 31.1466C13.3613 31.1467 13.3614 31.1468 13.3614 31.1468C13.3615 31.1469 13.3615 31.1469 15 30C16.6385 28.8531 16.6385 28.8531 16.6385 28.8531C16.6385 28.8531 16.6385 28.8531 16.6384 28.853C16.6383 28.8529 16.6382 28.8527 16.638 28.8525C16.6377 28.852 16.6371 28.8512 16.6364 28.8501C16.6348 28.8478 16.6324 28.8444 16.6292 28.8398C16.6227 28.8305 16.6129 28.8165 16.5998 28.7978C16.5737 28.7603 16.5345 28.7041 16.4829 28.6299C16.3797 28.4814 16.2267 28.2608 16.0288 27.9742C15.6331 27.4008 15.058 26.5631 14.3424 25.5087C12.9111 23.3995 10.9192 20.4251 8.67856 16.9663L5.32145 19.1411ZM15 30C16.6385 31.1469 16.6385 31.1469 16.6386 31.1468C16.6386 31.1468 16.6387 31.1467 16.6387 31.1466C16.6389 31.1464 16.6391 31.1461 16.6393 31.1457C16.6398 31.145 16.6405 31.144 16.6415 31.1427C16.6433 31.14 16.646 31.1362 16.6495 31.1311C16.6566 31.121 16.667 31.1061 16.6807 31.0865C16.708 31.0474 16.7484 30.9894 16.8013 30.9133C16.907 30.7612 17.0626 30.5369 17.2632 30.2463C17.6643 29.6651 18.2455 28.8187 18.9674 27.7548C20.4111 25.6273 22.4193 22.6286 24.6786 19.1411L21.3214 16.9663C19.0808 20.4251 17.0889 23.3995 15.6576 25.5087C14.942 26.5631 14.3669 27.4008 13.9712 27.9742C13.7733 28.2608 13.6203 28.4814 13.5171 28.6299C13.4655 28.7041 13.4263 28.7603 13.4002 28.7978C13.3871 28.8165 13.3773 28.8305 13.3708 28.8398C13.3676 28.8444 13.3652 28.8478 13.3637 28.8501C13.3629 28.8512 13.3623 28.852 13.362 28.8525C13.3618 28.8527 13.3617 28.8529 13.3616 28.853C13.3616 28.8531 13.3615 28.8531 13.3615 28.8531C13.3615 28.8531 13.3615 28.8531 15 30ZM24.9612 17.6615C24.9575 17.643 24.9537 17.6244 24.9498 17.6058L21.0333 18.4186C21.0351 18.4276 21.037 18.4367 21.0388 18.4458L24.9612 17.6615Z" fill="white" mask="url(#path-1-outside-1_8159_971)"/>
<circle cx="15" cy="12" r="4" fill="white"/>
</svg>
